<?xml version="1.0" encoding="utf-8"?>
<!-- Generator: Adobe Illustrator 27.0.0, SVG Export Plug-In . SVG Version: 6.00 Build 0)  -->
<svg version="1.1" id="Layer_1" xmlns="http://www.w3.org/2000/svg" xmlns:xlink="http://www.w3.org/1999/xlink" x="0px" y="0px"
	 viewBox="0 0 1366 768" style="enable-background:new 0 0 1366 768;" xml:space="preserve">
<g>
	<g>
		<path d="M711.11,479.79c-130.89-22.3-261.78-44.61-392.68-66.91c-32.37-5.52-64.74-11.03-97.11-16.55
			c-16.89-2.88-33.78-5.76-50.67-8.63c-13.73-2.34-30.8-2.92-43.07-10.24c-36.97-22.07,22.46-59.73,40.08-70.98
			c24.57-15.69,50.96-28.39,78.19-38.74c110.53-42.01,234.31-52.44,351.18-38.05c114.96,14.16,226.02,54.13,323.36,116.94
			c101.14,65.27,186.66,153.82,248.14,257.31c0.79,1.34,2.7,0.69,2.8-0.76c2.45-36.46,4.91-72.91,7.36-109.37
			c1.2-17.87,2.41-35.74,3.61-53.61c0.74-10.97,4.97-27.69-2.59-37.31c-6.81-8.66-20.77-8.33-30.65-9.02
			c-17.06-1.19-34.18-1.19-51.25-0.21c-33.73,1.94-67.17,7.68-100.01,15.51c-66.12,15.76-130.8,38.67-194.23,62.9
			c-61.27,23.41-121.53,49.47-180.54,78.1c-68.42,33.19-135.11,69.88-199.87,109.75c0.68,0.68,1.37,1.37,2.05,2.05
			C528.53,450.19,650.6,248.14,781.88,52.62C814.72,3.7,848.14-44.82,882.01-93.04c27.59-39.27,57.59-91.03,106.87-105.26
			c2.34-0.68,5.02-1.69,7.45-1.81c6.16-0.31,5.49-0.59,5.27,5.19c-0.24,6.56-3.75,14.46-5.39,20.75
			c-4.13,15.91-8.26,31.82-12.39,47.73c-7.72,29.74-15.44,59.48-23.16,89.23c-15.8,60.87-31.6,121.73-47.4,182.6
			c-35.55,136.95-71.09,273.9-106.64,410.85c-0.27,1.05,0.73,2.23,1.85,1.85c220.08-75.09,441.11-150.45,669.62-195.9
			c65.52-13.03,131.53-23.49,197.93-30.82c-0.25-0.93-0.5-1.86-0.76-2.8c-116.54,58.4-246.87,82.75-373.4,109.45
			c-133.88,28.25-268.26,54.11-402.75,79.29C629,567.88,358.53,616.55,87.76,663.49c-33.86,5.87-67.72,11.71-101.58,17.52
			c-16.93,2.91-33.87,5.81-50.8,8.7c-2.66,0.45-5.84,1.39-8.47,1.45c-6.65,0.14-5.31,1.11-6.37-5.2
			c-1.46-8.67,0.65-19.48,1.06-28.27c3.12-65.58,10.74-130.9,21.87-195.59C-34.59,334.44,0.75,209.48,41.52,86.67
			c20.5-61.75,42.41-123.03,64.84-184.1c11.19-30.47,22.51-60.88,33.86-91.29c1.67-4.48,1.93-8.52,7.08-10.44
			c3.25-1.21,9.35-0.35,12.84-0.48c7.13-0.27,14.26-0.53,21.4-0.8c18.54-0.69,37.08-1.51,55.63-2.08c16.14-0.5,31,0.83,40.06,15.97
			c8.02,13.41,10.07,30.9,13.57,45.85c7.82,33.39,15.62,66.78,23.38,100.18c15.53,66.8,30.94,133.63,46.23,200.48
			c30.59,133.71,60.7,267.52,90.34,401.44c14.82,66.96,29.52,133.95,44.1,200.96c11.64,53.47,23.77,111.16,64.78,150.66
			c16.7,16.09,37.04,27.64,59.95,31.86c1.87,0.34,2.7-2.44,0.8-2.89c-171.91-40.93-344.62-82.07-509.56-146.5
			c-147.67-57.68-289.13-135.07-407.5-241.51c-56.67-50.96-107.7-108.37-149.79-171.99c-5.04-7.62-9.96-15.33-14.74-23.12
			c-6.17-10.06-15.14-21.77-15.74-33.93c-1.03-20.94,26.4-38.83,40.33-51.29c30.56-27.36,62.4-53.28,95.25-77.84
			C-212.86,99.75-69.79,25.08,76.68-39.55c74.95-33.07,151-63.6,227.37-93.24c37.82-14.68,75.69-29.26,113.65-43.6
			c20.67-7.81,41.58-15.27,63.27-19.74c23.76-4.9,48.11-6.01,72.31-6.28c188.77-2.09,377.7,0.3,566.48,0.5
			c47.26,0.05,94.52,0.1,141.78,0.15c23.19,0.02,46.39-0.13,69.58,0.11c22.21,0.23,44.93,1.33,65.99,9.02
			c40.24,14.69,65.57,55.85,42.85,96.07c-19.37,34.27-57.05,57.15-88.09,79.71c-131.38,95.48-273.17,175.78-419.37,246.18
			c-147.75,71.15-300.02,132.38-453.2,190.72C326.42,478.25,172.46,533.6,20.06,593.05c-36.8,14.36-73.51,28.96-110.08,43.89
			c0.39,0.91,0.77,1.83,1.16,2.74C98.22,513.25,323.47,459.89,540.83,411.44c237.36-52.91,477.38-92.97,717.91-128.34
			c135.65-19.95,271.51-38.41,407.37-56.87c1.8-0.24,1.14-2.79-0.4-2.95c-147.04-14.5-292.14,26.16-427.87,79.21
			c-133.71,52.25-263.25,115.49-387.09,188.08c-35.32,20.7-70.17,42.19-104.53,64.44c-16.01,10.37-32.91,20.26-47.95,32.01
			c-9.18,7.17-17.37,16.52-14.5,28.8c0.14,0.58,0.82,1.17,1.45,1.1c216.59-25.01,432.57-55.61,647.5-92.31
			c50.09-8.55,101.31-17.56,148.42-37.29c32.27-13.51,67.19-37.45,79.43-71.83c13.32-37.41-10.5-68.82-39.67-89.8
			c-38.34-27.58-81.2-50.19-123.53-70.93c-172.86-84.72-363.51-126.3-553.54-149.74c-46.78-5.77-97.1-12.99-142.61,3.45
			c-33.3,12.03-64.63,38.74-72.49,74.53c-9.23,42.05,16.86,83.24,41.29,115.12c24.66,32.18,54.84,60.03,88.68,82.34
			c69.5,45.81,161.97,73.3,244.48,51.74c39.51-10.32,74.68-33.48,96.26-68.59c19.62-31.92,25.62-71.05,11.21-106.22
			c-30.04-73.33-121.64-100.7-192-115.04c-94.47-19.26-193.18-17.22-286.8,5.74c-79.32,19.45-178.47,52.95-213.67,134.27
			c-34.62,79.99-2.85,170.13,46.41,236.1c27.83,37.26,61.26,69.84,94.83,101.86c39.29,37.48,78.66,74.87,117.99,112.31
			c38.43,36.58,75.63,75.51,116.2,109.71c17.17,14.47,35.98,25.58,57.66,31.77c21.88,6.25,44.82,8.61,67.35,11.32
			c43.66,5.25,89.99,8.99,132.25-5.99c41.47-14.71,70.72-47.76,94.24-83.64c49.56-75.59,76.45-163.96,86.2-253.36
			c22.1-202.6-44.03-399.79-109.49-588.47c-17.26-49.76-34.55-99.52-51.82-149.28c-0.23-0.67-0.75-1.05-1.45-1.1
			c-71.98-4.84-144.03-9.69-216.2-9.95c-67.69-0.25-136.29,2.64-202.75,16.35c-61.07,12.6-118.91,35.94-168.61,74.04
			c-46.41,35.58-84.65,80.61-118.22,128.21c-36.45,51.7-72.23,106.93-93.59,166.8c-21.25,59.56-27.14,123.75-21.81,186.54
			c11.12,130.89,69.67,250.61,138.68,360.27c17.78,28.26,36.31,56.05,55.06,83.67c9.52,14.02,19.04,28.06,28.69,41.99
			c7.62,10.99,15.63,21.78,26.5,29.79c25.06,18.46,59.79,23.76,89.44,30.48c34.17,7.74,68.69,13.93,103.42,18.58
			c112.18,15.03,250.38,25.52,343.51-52.16c85.53-71.33,106.5-193.95,77.14-297.16c-16.33-57.42-46.27-110.43-83.33-156.98
			c-37.21-46.74-81.64-87.6-133.41-117.67c-93.25-54.17-205.42-74.45-311.89-58.14c-104.48,16-211.63,69.45-265.28,164.25
			c-25.39,44.87-34.65,97.83-19.14,147.66c15.39,49.46,51.68,90.74,95.03,118.11c44.13,27.86,98.32,42.19,150.41,35.13
			c52.57-7.12,97.15-38.21,120.75-85.89c53.69-108.48-8-226.29-80.02-308.92c-74.45-85.42-180.59-153.26-298.36-136.13
			c-27.99,4.07-55.37,13.08-79.78,27.49c-9.33,5.51-16.86,7.87-15.76,19.57c0.87,9.21,6.86,16.75,13.78,22.45
			c18.87,15.55,45.24,19.66,68.53,24.06c26.37,4.98,53.11,7.95,79.93,8.98c109.82,4.19,220.73-24.22,315.3-80.13
			c47.88-28.3,91.32-63.74,128.43-105.17c43.76-48.86,81.37-104.5,115.52-160.39c14.07-23.03,26.82-48.33,31.3-75.2
			c3.2-19.18,2.23-48.65-14.16-62.61c-7.5-6.38-24.91-6.62-34.6-7.9c-15.76-2.08-31.68-2.89-47.57-2.51
			c-30.29,0.71-60.43,5.64-89.58,13.83C633.14-160.62,537.49-70.9,453.66,21.02c-91,99.78-174.21,206.86-248.03,319.95
			c-33.29,50.99-64.16,104.6-77.34,164.65c-0.17,0.77,0.23,1.65,1.05,1.85c41.1,9.96,81.87-2.81,119.24-19.89
			c41.31-18.87,81.35-41.04,121.33-62.55c82.1-44.19,162.94-90.7,242.72-138.94c159.76-96.6,315.27-200.04,469.06-305.83
			c86.97-59.82,173.41-120.41,259.85-181.01c-0.68-0.68-1.37-1.37-2.05-2.05c-74.81,125.13-149.63,250.27-224.44,375.4
			c-73.41,122.79-148.26,244.84-219.71,368.78c-39.14,67.89-76.17,137.06-107.29,209.03c-0.54,1.24,0.66,2.96,2.05,2.05
			c152.1-98.45,306.06-194.01,461.83-286.55c77.58-46.09,155.61-91.44,234.06-136.04c39.23-22.3,78.56-44.41,118-66.33
			c20.02-11.13,40.07-22.21,60.15-33.24c6.92-3.8,8.76-4.76,11.2,4.01c1.45,5.2,1.64,10.23,1.01,15.53
			c-1.23,10.37-5.75,19.98-11.35,28.69c-10.73,16.72-25.7,29.65-40.9,42.13c-17.02,13.97-34.54,27.34-52.48,40.12
			c-33.51,23.89-68.43,45.78-104.25,66.02c-72.47,40.95-148.64,75.81-226.05,106.33c-146.02,57.56-322.19,102.8-470.17,26.58
			c-148.27-76.38-212.78-242.43-254.41-393.88c-5.6-20.37-10.94-40.8-16.26-61.24c-0.84,0.49-1.67,0.97-2.51,1.46
			c117.55,129.02,241.77,251.91,372.17,367.93c36.75,32.7,74,64.83,111.69,96.44c0.61-0.79,1.21-1.57,1.82-2.36
			c-146.77-75.6-293.54-151.2-440.31-226.8c-17.42-8.97-35-17.7-52.26-26.99c-14.48-7.79-29.16-16.68-39.06-30.12
			c-2.34-3.17-5.8-6.23-2.96-9.04c1.78-1.76,9.92-1.91,12.49-2.4c11.1-2.12,22.21-4.22,33.32-6.29c19.45-3.63,38.9-7.18,58.38-10.67
			c80.67-14.43,161.56-27.6,242.64-39.52c92.13-13.54,184.5-25.43,277.04-35.73c1.88-0.21,1.97-2.93,0-3
			c-91.72-3.36-180.29,25.06-262.23,64.14c-84.85,40.46-165.47,90.62-243.85,142.31C407.93,488.74,258.92,607.66,113.07,729.74
			C71.51,764.53,30.18,799.6-11.09,834.73c-30.23,25.72-77.51,55.49-77.7,100.17c0,1.09,1.29,1.93,2.26,1.3
			c210.87-139.37,458.33-209.5,697.42-283.55c73.69-22.82,147.48-45.34,221.35-67.56c1.54-0.46,1.34-3.16-0.4-2.95
			c-70.1,8.76-142.2-8.84-200.71-48.39c-59.64-40.32-101.11-102.94-117.35-172.88c-9.35-40.24-10.11-82.07-2.03-122.59
			c-0.91,0.12-1.83,0.24-2.74,0.36c84.87,128.04,165.58,258.81,241.87,392.14c21.55,37.67,42.74,75.54,63.6,113.59
			c0.68-0.68,1.37-1.37,2.05-2.05C690.21,647.05,591.33,516.7,532.89,369.72c-16.16-40.65-29.13-82.48-38.92-125.11
			c-0.43-1.88-3.33-1.08-2.89,0.8C526.51,399.69,605,543.24,715.19,656.85c30.94,31.9,64.34,61.29,99.82,88.05
			c1.27,0.96,2.71-0.85,2.05-2.05c-73.83-134.7-152.02-267-234.52-396.57c-23.31-36.6-46.97-72.98-70.94-109.15
			c-0.66-0.99-2.47-0.99-2.74,0.36c-14.17,71.03-1.08,146.16,35.71,208.52c36.36,61.63,95.78,107,163.96,128.11
			c39.85,12.34,81.92,16.19,123.31,11.02c-0.13-0.98-0.27-1.96-0.4-2.95c-130.65,39.3-261.12,79.27-391.09,120.77
			c-116.49,37.2-232.57,76.87-343.62,128.41C32.8,861.04-29.24,894.73-88.05,933.6c0.75,0.43,1.5,0.86,2.26,1.3
			c0.18-43.43,47.34-72.96,76.82-98.05c35.74-30.41,71.51-60.78,107.45-90.97c70.86-59.52,142.34-118.32,215.31-175.24
			c146.08-113.94,298.97-223.51,463.7-309.09c91.33-47.45,191-84.88,295.44-81.05c0-1,0-2,0-3
			c-163.73,18.23-326.89,41.47-489.18,69.83c-46.63,8.15-93.18,16.72-139.65,25.69c-1.02,0.2-1.29,1.4-0.9,2.2
			c13.84,28.39,45.42,41.22,71.94,54.88c37.49,19.31,74.97,38.62,112.46,57.93c75.61,38.95,151.22,77.89,226.82,116.84
			c42.57,21.93,85.14,43.86,127.71,65.78c1.43,0.74,3.19-1.2,1.82-2.36C850.21,456.15,722.31,337.09,601.03,211.56
			c-34.18-35.38-67.82-71.27-100.95-107.64c-1.04-1.14-2.87,0.06-2.51,1.46c27.97,107.48,57.32,217.5,118.49,311.63
			c53.37,82.14,129.65,147.74,225.74,172.81c100.65,26.26,207.48,9.26,305.37-20.45c104.2-31.62,206.14-76.95,301.72-128.92
			c54.51-29.63,107.14-62.85,156.22-100.86c31.21-24.17,94.8-69.14,68.68-116.37c-0.4-0.72-1.35-0.92-2.05-0.54
			c-234.91,128.9-466.18,264.42-693.4,406.45c-63.57,39.74-126.82,79.99-189.76,120.73c0.68,0.68,1.37,1.37,2.05,2.05
			C846.25,623.3,920.46,503.9,992.21,383.89c74.45-124.52,148.9-249.04,223.34-373.56c42.17-70.54,84.35-141.08,126.53-211.62
			c0.73-1.23-0.79-2.94-2.05-2.05C1121.79-50.35,903.38,102.72,676.81,243.25c-112.54,69.8-227.06,136.47-344.21,198.25
			c-29.39,15.5-58.75,31.55-89.11,45.1c-29.68,13.25-62.2,24.13-95.16,21.14c-1.21-0.11-12.88-0.63-14.49-2.26
			c-3.12-3.16-1.05-6.31-0.11-10.04c1.84-7.27,3.95-14.46,6.3-21.58c5.44-16.5,12.17-32.55,19.75-48.18
			c13.19-27.2,28.91-53.09,45.34-78.45c72.12-111.35,153.68-216.78,242.6-315.21c82.77-91.63,175.95-182.46,296.5-220.51
			c29.25-9.23,59.59-15.24,90.24-16.99c14.65-0.84,29.37-0.7,44,0.5c15.14,1.25,41.82,1.13,51.47,14.53
			c16.28,22.62,10.97,54.4,2.34,78.79c-10.11,28.59-26.93,53.8-43.41,78.99c-35.37,54.05-72.12,107.91-118.16,153.59
			c-38.62,38.32-83.2,70.45-131.39,95.65c-96.39,50.42-207.35,73.3-315.79,63.64c-28.09-2.5-56.05-7.15-83.37-14.19
			c-12.98-3.35-26.03-8.25-36.34-17.1c-5.01-4.3-9.52-9.67-11.22-16.19c-2.88-11.07,5.49-15.39,13.69-20.23
			c50.77-29.97,113.13-35.87,170.19-23.97c58.04,12.11,110.52,43.19,154.69,82.02c44.47,39.09,84.08,86.51,112.56,138.5
			c28.48,52.01,44.37,111.82,32.23,170.9c-11.32,55.12-46.34,103.39-100.52,122.43c-105.19,36.97-234.74-31.56-272.73-134.08
			c-41.37-111.65,44.1-218.89,137.59-270.25c95.21-52.3,210.94-64.22,316.33-41.2c114.5,25.01,211.66,91.91,280.61,186.17
			c68.31,93.37,106.2,214.4,65.57,327.13c-18.88,52.39-53.84,98.5-102.2,126.83c-51.66,30.26-112.66,39.31-171.69,40.02
			c-66.89,0.81-134.37-7.05-200.03-19.39c-31.62-5.94-63.49-12.59-94.3-21.93c-15.79-4.79-31.3-11.19-43.5-22.62
			c-12.84-12.03-22.07-27.98-31.94-42.41c-72.36-105.81-145.16-214.87-183.51-338.39c-18.77-60.45-29.14-123.96-26.86-187.35
			c2.37-65.79,19.73-128.27,50.86-186.2C328.45,65.11,362.8,12.96,401.59-33.93c37.18-44.95,80.78-85.34,132.56-112.88
			c57.31-30.49,121.86-44.28,185.98-50.83c68.52-7,137.68-6.79,206.43-4.05c34.65,1.38,69.27,3.45,103.87,5.71
			c8.47,0.55,16.94,1.12,25.41,1.69c4.81,0.32,9.22-0.58,12.64,3.74c2.07,2.62,3.05,8.78,4.15,11.96c6,17.28,12,34.56,18,51.85
			c22.24,64.07,44.94,128.01,65.94,192.5c40.66,124.85,74.75,254.02,76.07,386.14c1.19,119.26-24.05,241.56-90.14,342.36
			c-17.18,26.2-37.36,51.62-64.15,68.56c-26.07,16.48-56.6,22.89-87.09,23.94c-30.38,1.05-60.73-2.7-90.79-6.64
			c-32.7-4.28-64.5-10.27-91.86-29.82c-27.88-19.92-51.78-46.23-76.54-69.78c-24.73-23.54-49.46-47.08-74.19-70.62
			c-48.64-46.29-98.83-91.44-145.24-139.99c-41.89-43.83-80.47-93.7-96.97-152.99c-15.58-55.99-11.81-119.94,25.29-166.94
			c36.69-46.47,96.18-70.26,150.97-87.59c60.99-19.29,124.82-29.37,188.77-30.11c63.9-0.74,128.07,7.78,189.37,25.92
			c48.32,14.3,100.76,38.4,128.64,82.59c31.57,50.04,15.24,112.05-26.11,151.02c-46.57,43.89-116.1,50.48-176.58,40.18
			c-55.48-9.45-108.38-32.86-153.42-66.49c-21.99-16.42-42.14-35.35-59.85-56.32c-19.9-23.56-39.39-50.8-48.43-80.6
			c-19.34-63.79,33.71-113.04,92.59-123.78c32.35-5.9,65.57-2.81,97.97,0.95c32.56,3.77,65.05,8.13,97.45,13.09
			c122.29,18.7,243.72,46.32,359.76,89.69c58.65,21.92,115.82,47.9,170.43,78.58c26.68,14.99,54.97,30.2,78.37,50.1
			c22.13,18.82,36.9,45.4,27.72,74.77c-8.58,27.42-32.99,48.01-57.03,61.91c-26.61,15.39-57.14,24.05-86.82,31.38
			c-67.13,16.58-136.44,25.66-204.67,36.56c-139.21,22.22-278.81,42.03-418.71,59.4c-16.97,2.11-33.95,4.18-50.93,6.22
			c-7.08,0.85-14.15,1.69-21.23,2.53c-4.25,0.5-8.49,1-12.74,1.5c-3.71,0.43-13.67,3.43-16.99,1.98
			c-16.11-7.03,23.3-32.81,28.47-36.26c14.29-9.52,28.66-18.9,43.12-28.15c54.51-34.86,110.25-67.8,167.07-98.75
			c115.05-62.66,234.77-118.37,358.08-162.78c121.27-43.68,249.89-73.99,379.49-61.21c-0.13-0.98-0.27-1.96-0.4-2.95
			c-242.42,32.94-484.91,65.9-726.07,107.27c-120.49,20.67-240.62,43.45-360.1,69.35c-112.69,24.43-225.51,50.34-335.7,84.51
			C126.21,520.81,11.67,568.13-90.38,637.09c-1.31,0.88-0.51,3.42,1.16,2.74c156.48-63.85,315.34-121.59,473.61-180.82
			c156.94-58.72,313.46-118.95,466.14-188.14c151.71-68.75,299.73-146.58,437.97-239.77c35.15-23.69,69.69-48.33,103.39-74.05
			c25.22-19.25,54.68-43.75,59.61-77.16c4.82-32.67-18.65-60.29-47.11-72.84c-38.42-16.95-84.82-11.76-125.68-11.81
			c-195.48-0.2-390.96-0.41-586.43-0.61c-48.41-0.05-96.89-0.87-145.29,0.04c-22.38,0.42-44.86,1.77-66.83,6.3
			c-22.35,4.61-43.86,12.39-65.15,20.46c-77.96,29.54-155.8,59.48-232.95,91.08C28.83-24.74-122.37,45.36-261.23,136.17
			c-67.92,44.42-132.7,93.78-192.36,148.84c-11.34,10.46-27.23,22.73-26.37,39.93c0.84,16.78,14.74,33.44,23.42,47.07
			c20.28,31.81,42.81,62.19,67.16,91c100.53,118.92,230.76,210.28,369.86,278.67c161.59,79.45,335.82,128.93,510.02,172.05
			c42.96,10.63,86.02,20.89,129.08,31.14c0.27-0.96,0.53-1.93,0.8-2.89c-88.22-16.24-108.93-117.53-124.91-190.89
			c-19.92-91.44-40.05-182.83-60.41-274.17c-40.56-181.99-81.99-363.78-124.3-545.37c-5.84-25.05-11.69-50.09-17.56-75.13
			c-3.95-16.86-6.12-38.52-18.71-51.72c-12.91-13.54-33.32-10.37-50.16-9.74c-27.1,1.01-54.2,2.03-81.3,3.04
			c-0.71,0.03-1.21,0.46-1.45,1.1C57.21,25.09-27.85,253.58-64.6,493.08c-10.21,66.55-16.5,133.65-18.06,200.97
			c-0.02,1.05,0.97,1.6,1.9,1.45c234.28-39.96,468.34-81.24,702.15-123.86c233.77-42.62,467.65-85.26,700.09-134.72
			c120.7-25.68,244.14-50.06,355.3-105.76c1.28-0.64,0.73-2.96-0.76-2.8c-232.39,25.66-457.96,90.31-679.41,163.15
			c-63.13,20.77-126.04,42.22-188.94,63.68c0.62,0.62,1.23,1.23,1.85,1.85c51.17-197.13,102.33-394.25,153.5-591.38
			c14.54-56.03,29.08-112.05,43.63-168.08c0.22-0.86-0.45-2-1.45-1.9c-57.12,5.66-91.16,60.56-121.16,103.2
			C842.81-42.53,802.23,16.51,762.54,76.15c-79.71,119.78-155.85,242-226.22,367.52c-39.91,71.19-77.91,143.44-113.69,216.8
			c-0.62,1.28,0.69,2.89,2.05,2.05c108.02-66.5,221.48-124.02,339.08-171.58c59.27-23.97,119.59-45.81,180.83-64.2
			c62.86-18.87,128.2-33.23,194.21-30.43c9.42,0.4,20.19,0.14,29.27,2.89c15.42,4.67,12.64,20.11,11.81,32.43
			c-1.25,18.59-2.5,37.17-3.75,55.76c-2.6,38.6-5.19,77.2-7.79,115.8c0.93-0.25,1.86-0.5,2.8-0.76
			c-117.98-198.58-322.4-337.62-550.91-372.54c-119.79-18.31-246.56-10.12-361.35,29.93c-27.77,9.69-54.85,21.6-80.26,36.46
			c-12.6,7.37-24.78,15.47-36.39,24.32c-9.97,7.61-20.88,15.88-26.31,27.57c-9.17,19.77,6.42,32.66,24.2,37.08
			c33.07,8.22,67.93,11.85,101.52,17.57c156.23,26.62,312.45,53.24,468.68,79.86C712.21,483,713.02,480.11,711.11,479.79
			L711.11,479.79z"/>
	</g>
</g>
<g>
	<g>
		<path d="M1339.32,58.64c-19.34,0.21-38.62,3.25-57.09,9.01c-1.68,0.52-1.25,2.79,0.4,2.95c29.42,2.83,58.61,8.01,87.21,15.46
			c8.08,2.1,16.1,4.39,24.08,6.85c-0.35-0.62-0.7-1.23-1.05-1.85c-0.45,2.99-2.87,4.71-5.43,5.95c-3.28,1.58-6.92,2.47-10.38,3.58
			c-8.38,2.69-16.77,5.38-25.15,8.06c-16.61,5.33-33.21,10.65-49.82,15.98c-9.41,3.02-18.82,6.04-28.23,9.05
			c-1.83,0.59-1.05,3.48,0.8,2.89c17.16-5.5,34.32-11.01,51.48-16.51c17.16-5.5,34.32-11.01,51.48-16.51
			c3.94-1.26,8.09-2.3,11.8-4.19c3.02-1.54,5.81-4,6.34-7.51c0.12-0.82-0.2-1.58-1.05-1.85c-28.53-8.8-57.74-15.33-87.3-19.48
			c-8.24-1.16-16.5-2.14-24.78-2.93c0.13,0.98,0.27,1.96,0.4,2.95c18.23-5.69,37.2-8.69,56.29-8.9
			C1341.25,61.61,1341.25,58.61,1339.32,58.64L1339.32,58.64z"/>
	</g>
</g>
<g>
	<g>
		<path d="M1316.94,586.64c-17.58,5.97-34.26,14.54-49.29,25.44c-4.26,3.09-8.39,6.35-12.37,9.79c-1.11,0.95-0.09,2.41,1.06,2.56
			c22.93,2.92,45.74,6.79,68.35,11.58c22.51,4.77,44.82,10.46,66.87,17.04c12.43,3.72,24.78,7.72,37.03,12
			c-0.22-0.84-0.44-1.67-0.66-2.51c-17.11,14.2-36.2,25.76-55.67,36.4c-20.59,11.25-41.55,21.86-62.36,32.7
			c-12.25,6.38-24.5,12.76-36.74,19.13c-1.71,0.89-0.2,3.48,1.51,2.59c21.84-11.37,43.68-22.74,65.52-34.12
			c20.06-10.45,40.27-20.72,59.44-32.76c10.58-6.64,20.8-13.85,30.42-21.82c0.93-0.78,0.3-2.17-0.66-2.51
			c-21.95-7.67-44.21-14.44-66.71-20.28c-22.35-5.8-44.93-10.69-67.68-14.64c-12.84-2.23-25.73-4.16-38.66-5.81
			c0.35,0.85,0.71,1.71,1.06,2.56c13.77-11.85,29.31-21.6,45.95-28.89c4.71-2.07,9.52-3.91,14.4-5.56
			C1319.56,588.92,1318.78,586.02,1316.94,586.64L1316.94,586.64z"/>
	</g>
</g>
<g>
	<g>
		<path d="M42.86,34.81c-5.7-1.22-11.51-1.29-17.25-0.24c-1.56,0.28-1.29,2.46,0,2.89c15.2,5.08,30.11,11.23,44.34,18.61
			c1.17,0.61,2.9,1.42,2.46,3.02c-0.39,1.44-1.92,2.58-3.1,3.36c-3.48,2.32-7.07,4.49-10.6,6.73c-7.14,4.53-14.28,9.06-21.42,13.59
			c-8.05,5.11-16.1,10.21-24.14,15.32c-1.63,1.03-0.12,3.63,1.51,2.59c15.26-9.68,30.51-19.36,45.77-29.04
			c3.66-2.32,7.52-4.48,11.02-7.03c2.54-1.86,5.32-5.07,3.41-8.35c-0.93-1.59-2.67-2.41-4.24-3.2c-1.89-0.96-3.79-1.9-5.7-2.82
			c-3.82-1.84-7.67-3.61-11.56-5.31c-8.83-3.84-17.83-7.3-26.96-10.36c0,0.96,0,1.93,0,2.89c5.18-0.95,10.5-0.86,15.65,0.24
			C43.95,38.11,44.75,35.22,42.86,34.81L42.86,34.81z"/>
	</g>
</g>
<g>
	<g>
		<path d="M71.28,651.54c-17.76-1-35.73,1.72-52.37,8c-3.2,1.21-9.32,2.74-9.07,7.19c0.03,0.61,0.44,1.33,1.1,1.45
			c9.51,1.66,18.96,3.66,28.33,6.02c4.6,1.16,9.19,2.4,13.74,3.73c4.32,1.26,8.73,2.45,12.89,4.19c1.95,0.82,3.84,1.81,5.56,3.03
			c1.52,1.08,3.36,2.53,2.66,4.62c-0.66,1.93-2.48,3.37-3.95,4.68c-1.72,1.53-3.42,3.08-5.11,4.65
			c-6.71,6.21-13.2,12.65-19.45,19.31c-7.1,7.56-13.88,15.41-20.36,23.51c-1.19,1.49,0.92,3.63,2.12,2.12
			c12.04-15.06,25.17-29.23,39.3-42.35c1.8-1.67,3.62-3.33,5.45-4.96c1.58-1.41,3.25-2.86,4.28-4.75c1-1.84,1.24-3.99,0.19-5.88
			c-1.01-1.82-2.94-3.15-4.66-4.24c-3.77-2.4-8.09-3.78-12.33-5.09c-4.77-1.47-9.56-2.85-14.38-4.13
			c-11.04-2.94-22.21-5.39-33.47-7.35c0.37,0.48,0.73,0.96,1.1,1.45c-0.08-1.45,1.72-2.21,2.83-2.69c1.82-0.79,3.69-1.49,5.55-2.17
			c3.9-1.41,7.86-2.63,11.88-3.66c7.91-2.01,16-3.26,24.15-3.7c4.68-0.25,9.36-0.24,14.04,0.03
			C73.2,654.65,73.2,651.65,71.28,651.54L71.28,651.54z"/>
	</g>
</g>
</svg>
